<?xml version="1.0" encoding="UTF-8" standalone="no"?>
<svg
   xmlns:dc="http://purl.org/dc/elements/1.1/"
   xmlns:cc="http://creativecommons.org/ns#"
   xmlns:rdf="http://www.w3.org/1999/02/22-rdf-syntax-ns#"
   xmlns:svg="http://www.w3.org/2000/svg"
   xmlns="http://www.w3.org/2000/svg"
   xmlns:sodipodi="http://sodipodi.sourceforge.net/DTD/sodipodi-0.dtd"
   xmlns:inkscape="http://www.inkscape.org/namespaces/inkscape"
   width="214.46355"
   zoomAndPan="magnify"
   viewBox="0 0 160.84766 184.06113"
   height="245.41484"
   preserveAspectRatio="xMidYMid meet"
   version="1.0"
   id="svg164"
   sodipodi:docname="2.svg"
   inkscape:version="1.0.2 (e86c870879, 2021-01-15)">
  <metadata
     id="metadata168">
    <rdf:RDF>
      <cc:Work
         rdf:about="">
        <dc:format>image/svg+xml</dc:format>
        <dc:type
           rdf:resource="http://purl.org/dc/dcmitype/StillImage" />
      </cc:Work>
    </rdf:RDF>
  </metadata>
  <sodipodi:namedview
     pagecolor="#ffffff"
     bordercolor="#666666"
     borderopacity="1"
     objecttolerance="10"
     gridtolerance="10"
     guidetolerance="10"
     inkscape:pageopacity="0"
     inkscape:pageshadow="2"
     inkscape:window-width="1485"
     inkscape:window-height="654"
     id="namedview166"
     showgrid="false"
     inkscape:zoom="1.2501648"
     inkscape:cx="74.48144"
     inkscape:cy="73.596155"
     inkscape:window-x="242"
     inkscape:window-y="209"
     inkscape:window-maximized="0"
     inkscape:current-layer="svg164" />
  <defs
     id="defs34">
    <g
       id="g2" />
    <clipPath
       id="92b4107089">
      <path
         d="m 252.59766,208.26172 h 10.5 v 15 h -10.5 z m 0,0"
         clip-rule="nonzero"
         id="path4" />
    </clipPath>
    <clipPath
       id="7e75fc87fc">
      <path
         d="m 187,107 h 53 v 101.14062 h -53 z m 0,0"
         clip-rule="nonzero"
         id="path7" />
    </clipPath>
    <clipPath
       id="c88ccc36f9">
      <path
         d="m 228,107 h 40.24219 v 65 H 228 Z m 0,0"
         clip-rule="nonzero"
         id="path10" />
    </clipPath>
    <clipPath
       id="4d09cdb484">
      <path
         d="m 187,107 h 53 v 101.14062 h -53 z m 0,0"
         clip-rule="nonzero"
         id="path13" />
    </clipPath>
    <clipPath
       id="2e5be61db3">
      <path
         d="m 135,107 h 53 v 101.14062 h -53 z m 0,0"
         clip-rule="nonzero"
         id="path16" />
    </clipPath>
    <clipPath
       id="a3f632327d">
      <path
         d="m 135,107 h 53 v 101.14062 h -53 z m 0,0"
         clip-rule="nonzero"
         id="path19" />
    </clipPath>
    <clipPath
       id="70dd160d5a">
      <path
         d="m 211,158 h 57.24219 v 22 H 211 Z m 0,0"
         clip-rule="nonzero"
         id="path22" />
    </clipPath>
    <clipPath
       id="d49b103eb6">
      <path
         d="m 207,85.890625 h 42 V 108 h -42 z m 0,0"
         clip-rule="nonzero"
         id="path25" />
    </clipPath>
    <clipPath
       id="0829041e7d">
      <path
         d="m 126,85.890625 h 42 V 108 h -42 z m 0,0"
         clip-rule="nonzero"
         id="path28" />
    </clipPath>
    <clipPath
       id="0eb809b9a9">
      <path
         d="m 174,183 h 27 v 25.14062 h -27 z m 0,0"
         clip-rule="nonzero"
         id="path31" />
    </clipPath>
  </defs>
  <g
     fill="#737373"
     fill-opacity="1"
     id="g42"
     transform="translate(-107.21484,-85.890625)">
    <g
       transform="translate(126.84325,251.52947)"
       id="g40">
      <g
         id="g38">
        <path
           d="M 3.3125,0 H 29.808594 V -6.625 H 9.9375 v -19.871094 h 19.871094 v -6.625 H 3.3125 Z m 26.496094,-6.625 h 6.625 v -19.871094 h -6.625 z m 0,0"
           id="path36" />
      </g>
    </g>
  </g>
  <g
     fill="#f1943d"
     fill-opacity="1"
     id="g50"
     transform="translate(-107.21484,-85.890625)">
    <g
       transform="translate(167.6245,251.52947)"
       id="g48">
      <g
         id="g46">
        <path
           d="m 3.3125,0 h 6.625 v -13.25 h 13.25 v -6.625 h -13.25 v -13.246094 h -6.625 z m 19.875,-6.625 h 6.621094 V -13.25 H 23.1875 Z m 0,-13.25 h 6.621094 v -6.621094 H 23.1875 Z M 29.808594,0 h 6.625 v -6.625 h -6.625 z m 0,-26.496094 h 6.625 v -6.625 h -6.625 z m 0,0"
           id="path44" />
      </g>
    </g>
  </g>
  <g
     fill="#a6a6a6"
     fill-opacity="1"
     id="g58"
     transform="translate(-107.21484,-85.890625)">
    <g
       transform="translate(208.40574,251.52947)"
       id="g56">
      <g
         id="g54">
        <path
           d="m 3.3125,0 h 6.625 V -6.625 H 29.808594 V -13.25 H 9.9375 v -13.246094 h 19.871094 v -6.625 H 3.3125 Z m 26.496094,-13.25 h 6.625 v -13.246094 h -6.625 z m 0,0"
           id="path52" />
      </g>
    </g>
  </g>
  <g
     fill="#100f0d"
     fill-opacity="1"
     id="g66"
     transform="translate(-107.21484,-85.890625)">
    <g
       transform="translate(139.89867,269.95176)"
       id="g64">
      <g
         id="g62">
        <path
           d="M 2.207031,0 H 7.726562 V -1.40625 H 2.207031 V -5.820312 H 7.726562 V -7.222656 H 2.207031 l -1.40625,1.402344 v 4.414062 z m 0,0"
           id="path60" />
      </g>
    </g>
  </g>
  <g
     fill="#100f0d"
     fill-opacity="1"
     id="g74"
     transform="translate(-107.21484,-85.890625)">
    <g
       transform="translate(153.94438,269.95176)"
       id="g72">
      <g
         id="g70">
        <path
           d="m 2.207031,0 h 4.890625 l 1.40625,-1.40625 V -5.820312 L 7.097656,-7.222656 H 2.207031 l -1.40625,1.402344 v 4.414062 z m 0,-1.40625 v -4.414062 h 4.890625 v 4.414062 z m 0,0"
           id="path68" />
      </g>
    </g>
  </g>
  <g
     fill="#100f0d"
     fill-opacity="1"
     id="g82"
     transform="translate(-107.21484,-85.890625)">
    <g
       transform="translate(168.76751,269.95176)"
       id="g80">
      <g
         id="g78">
        <path
           d="m 0.800781,0 h 1.40625 V -5.820312 H 7.097656 V 0 h 1.40625 V -5.820312 L 7.097656,-7.222656 H 2.207031 l -1.40625,1.402344 z m 0,0"
           id="path76" />
      </g>
    </g>
  </g>
  <g
     fill="#100f0d"
     fill-opacity="1"
     id="g90"
     transform="translate(-107.21484,-85.890625)">
    <g
       transform="translate(183.59064,269.95176)"
       id="g88">
      <g
         id="g86">
        <path
           d="M 0.800781,0 H 6.859375 V -0.0117188 L 8.25,-1.40625 V -2.910156 L 6.847656,-4.3125 H 2.207031 V -5.820312 H 8.25 V -7.222656 H 2.195312 v 0.011718 L 0.800781,-5.820312 V -4.3125 l 1.40625,1.402344 H 6.847656 V -1.40625 H 0.800781 Z m 0,0"
           id="path84" />
      </g>
    </g>
  </g>
  <g
     fill="#100f0d"
     fill-opacity="1"
     id="g98"
     transform="translate(-107.21484,-85.890625)">
    <g
       transform="translate(198.16299,269.95176)"
       id="g96">
      <g
         id="g94">
        <path
           d="m 2.207031,0 h 4.890625 l 1.40625,-1.40625 V -7.222656 H 7.097656 V -1.40625 H 2.207031 v -5.816406 h -1.40625 v 5.816406 z m 0,0"
           id="path92" />
      </g>
    </g>
  </g>
  <g
     fill="#100f0d"
     fill-opacity="1"
     id="g106"
     transform="translate(-107.21484,-85.890625)">
    <g
       transform="translate(212.98612,269.95176)"
       id="g104">
      <g
         id="g102">
        <path
           d="M 2.207031,0 H 6.722656 V -1.40625 H 2.207031 v -5.816406 h -1.40625 v 5.816406 z m 0,0"
           id="path100" />
      </g>
    </g>
  </g>
  <g
     fill="#100f0d"
     fill-opacity="1"
     id="g114"
     transform="translate(-107.21484,-85.890625)">
    <g
       transform="translate(226.0287,269.95176)"
       id="g112">
      <g
         id="g110">
        <path
           d="m 3.824219,0 h 1.40625 V -5.820312 H 8.25 V -7.222656 H 0.800781 v 1.402344 h 3.023438 z m 0,0"
           id="path108" />
      </g>
    </g>
  </g>
  <path
     fill="#ffffff"
     d="m 154.97266,131.22657 -3.65625,0.68359 1.88281,3.83984 -2.23828,1.08594 -1.90234,-3.83984 -2.85938,2.42187 -0.375,-12.1289 9.14844,7.9375"
     fill-opacity="1"
     fill-rule="nonzero"
     id="path116" />
  <g
     clip-path="url(#92b4107089)"
     id="g120"
     transform="translate(-107.21484,-85.890625)">
    <path
       fill="#f1943d"
       d="m 256.41016,218.23828 1.95312,3.94922 1.50781,-0.73047 -1.9414,-3.95312 3.35937,-0.62891 -7.80859,-6.77734 0.3164,10.35156 z m 1.57421,5.02734 -1.84765,-3.73437 -3.10547,2.63281 -0.42969,-13.90234 10.48047,9.09765 -3.94922,0.73829 1.82813,3.73046 -2.97657,1.4375"
       fill-opacity="1"
       fill-rule="nonzero"
       id="path118" />
  </g>
  <g
     clip-path="url(#7e75fc87fc)"
     id="g124"
     transform="translate(-107.21484,-85.890625)">
    <path
       fill="#f1943d"
       d="m 187.64062,208.15234 v -74.39062 l 52.08204,-26.1875 z m 0,0"
       fill-opacity="1"
       fill-rule="nonzero"
       id="path122" />
  </g>
  <g
     clip-path="url(#c88ccc36f9)"
     id="g128"
     transform="translate(-107.21484,-85.890625)">
    <path
       fill="#545454"
       d="m 239.72266,107.57422 28.33984,64.27344 -39.375,-13.38672 z m 0,0"
       fill-opacity="1"
       fill-rule="nonzero"
       id="path126" />
  </g>
  <g
     clip-path="url(#4d09cdb484)"
     id="g132"
     transform="translate(-107.21484,-85.890625)">
    <path
       fill="#d9d9d9"
       d="m 239.72266,107.57422 -52.08204,100.57812 41.04688,-49.6914 z m 0,0"
       fill-opacity="1"
       fill-rule="nonzero"
       id="path130" />
  </g>
  <g
     clip-path="url(#2e5be61db3)"
     id="g136"
     transform="translate(-107.21484,-85.890625)">
    <path
       fill="#545454"
       d="m 187.64062,208.15234 v -74.39062 l -52.08593,-26.1875 z m 0,0"
       fill-opacity="1"
       fill-rule="nonzero"
       id="path134" />
  </g>
  <path
     fill="#545454"
     d="M 28.339846,21.683595 -4e-6,85.957035 39.378906,72.570315 Z m 0,0"
     fill-opacity="1"
     fill-rule="nonzero"
     id="path138" />
  <g
     clip-path="url(#a3f632327d)"
     id="g142"
     transform="translate(-107.21484,-85.890625)">
    <path
       fill="#d9d9d9"
       d="m 135.55469,107.57422 52.08593,100.57812 -41.04687,-49.6914 z m 0,0"
       fill-opacity="1"
       fill-rule="nonzero"
       id="path140" />
  </g>
  <path
     fill="#d9d9d9"
     d="m 132.50782,21.683595 -52.082044,26.1875 -52.08593,-26.1875 52.08593,-10.414064 52.082044,10.414064"
     fill-opacity="1"
     fill-rule="nonzero"
     id="path144" />
  <g
     clip-path="url(#70dd160d5a)"
     id="g148"
     transform="translate(-107.21484,-85.890625)">
    <path
       fill="#f1943d"
       d="m 228.6875,158.46094 39.375,13.38672 -56.47656,7.3125 z m 0,0"
       fill-opacity="1"
       fill-rule="nonzero"
       id="path146" />
  </g>
  <path
     fill="#f1943d"
     d="m 39.476566,72.570315 -39.375,13.38672 56.47656,7.3125 z m 0,0"
     fill-opacity="1"
     fill-rule="nonzero"
     id="path150" />
  <g
     clip-path="url(#d49b103eb6)"
     id="g154"
     transform="translate(-107.21484,-85.890625)">
    <path
       fill="#f1943d"
       d="M 207.72266,101.17578 248.375,85.882812 239.72266,107.57422 Z m 0,0"
       fill-opacity="1"
       fill-rule="nonzero"
       id="path152" />
  </g>
  <g
     clip-path="url(#0829041e7d)"
     id="g158"
     transform="translate(-107.21484,-85.890625)">
    <path
       fill="#f1943d"
       d="m 167.55469,101.17578 -40.64844,-15.292968 8.64844,21.691408 z m 0,0"
       fill-opacity="1"
       fill-rule="nonzero"
       id="path156" />
  </g>
  <g
     clip-path="url(#0eb809b9a9)"
     id="g162"
     transform="translate(-107.21484,-85.890625)">
    <path
       fill="#100f0d"
       d="m 187.63672,208.13672 12.90234,-24.91406 h -25.80078 z m 0,0"
       fill-opacity="1"
       fill-rule="nonzero"
       id="path160" />
  </g>
</svg>
